<svg width="276.096680" height="84.971436" viewBox="0 0 276.097 84.9714" fill="none" xmlns="http://www.w3.org/2000/svg" xmlns:xlink="http://www.w3.org/1999/xlink">
	<desc>
			Created with Pixso.
	</desc>
	<defs/>
	<path id="SPY" d="M58.26 35.83Q67.47 35.83 74.32 37.15Q80.62 38.27 84.99 41.78Q85.45 42.14 85.88 42.53Q86.71 43.26 87.39 44.11Q90.57 48.08 90.57 54.59Q90.57 62.43 86.84 67.55Q83.62 71.99 77.61 74.39Q64.74 79.48 48.68 79.48C38.04 79.48 28.18 77.75 19.1 74.3Q12.36 71.68 8.96 66.77Q5.48 61.74 5.48 54.31L29.43 54.22Q29.43 57.77 31.17 59.92Q32.61 61.7 35.25 62.51Q41.17 64.21 49.06 64.21C54.01 64.21 58.23 63.49 61.74 62.04Q65.11 60.68 66.36 58.23Q67.09 56.79 67.09 54.97L67.09 54.88C67.09 53.05 66 51.7 63.8 50.82C61.61 49.94 59.27 49.41 56.76 49.22C54.26 49.03 51.25 48.91 47.74 48.84L40.7 48.84C33.94 48.84 28.05 48.44 23.04 47.62Q16.22 46.4 11.38 42.64Q10.96 42.31 10.55 41.96Q9.64 41.18 8.89 40.26L8.89 40.26Q5.48 36.1 5.48 29.14Q5.48 21.16 9.35 16.21Q12.62 12.03 18.63 10.01Q31.87 5.48 48.68 5.48Q64.46 5.48 77.52 10.67Q83.5 13.04 86.75 17.44Q90.57 22.64 90.57 30.65L67 30.65Q67 29.08 66.4 27.78Q65.21 25.18 61.64 23.67Q56.38 21.32 48.78 21.03Q40.61 21.03 34.97 22.92Q30.69 24.35 29.66 27.03Q29.34 27.88 29.34 28.86Q29.34 30.11 29.83 31.11Q31.02 33.52 35.07 34.52C38.88 35.46 43.21 35.93 48.03 35.93L58.26 35.83ZM148.92 7.55Q157.65 7.55 164.32 10.48C168.83 12.43 172.31 15.16 174.75 18.68C177.25 22.13 178.5 26.16 178.5 30.74L178.5 31.12C178.5 38.66 175.94 44.51 170.8 48.66C165.67 52.74 158.66 54.78 149.77 54.78L119.62 54.78L119.62 77.31L96.42 77.31L96.42 7.55L148.92 7.55ZM264.48 7.55L240.53 7.55L218.27 33.48L197.14 7.55L173.19 7.55L206.34 48.09L206.34 77.31L231.23 77.31L231.23 48L264.48 7.55ZM144.79 38.29C148.04 38.29 150.45 38.19 152.02 38C153.65 37.81 154.99 37.22 156.06 36.21Q157.65 34.7 157.65 31.22Q157.65 27.63 156.06 26.03C154.99 24.96 153.62 24.3 151.92 24.05C150.23 23.8 147.85 23.67 144.79 23.67L141.69 23.67Q139.81 23.67 135.11 23.77L119.62 23.77L119.62 38.29L144.79 38.29Z" fill="#B300FE" fill-opacity="1.000000" fill-rule="evenodd"/>
	<path id="SPY" d="M61.48 30.39Q61.27 29.47 59.51 28.73Q55.15 26.78 48.67 26.52Q41.47 26.53 36.71 28.12Q35.69 28.47 35.14 28.8Q35.6 29 36.38 29.19Q41.46 30.44 48.03 30.44L58.21 30.35Q59.88 30.35 61.48 30.39ZM48.78 21.03Q56.38 21.32 61.64 23.67Q65.21 25.18 66.4 27.78Q67 29.08 67 30.65L90.57 30.65Q90.57 27.72 90.06 25.16Q89.17 20.74 86.75 17.44Q83.5 13.04 77.52 10.67Q64.46 5.48 48.68 5.48Q31.87 5.48 18.63 10.01Q12.62 12.03 9.35 16.21L9.35 16.21Q5.48 21.16 5.48 29.14Q5.48 36.1 8.89 40.26L8.89 40.26L8.89 40.26L8.89 40.26Q9.64 41.18 10.55 41.96Q10.96 42.31 11.38 42.64L11.38 42.64Q16.22 46.4 23.04 47.62C26.41 48.17 30.17 48.53 34.33 48.71C34.52 48.72 34.72 48.73 34.92 48.74C36.77 48.81 38.7 48.84 40.7 48.84L47.74 48.84C51.25 48.91 54.26 49.03 56.76 49.22C59.27 49.41 61.61 49.94 63.8 50.82C66 51.7 67.09 53.05 67.09 54.88L67.09 54.97Q67.09 56.79 66.36 58.23Q65.11 60.68 61.74 62.04C58.23 63.49 54.01 64.21 49.06 64.21Q41.17 64.21 35.25 62.51Q32.61 61.7 31.17 59.92L31.17 59.92Q29.46 57.8 29.43 54.33Q29.43 54.27 29.43 54.22L23.94 54.24L5.48 54.31L5.48 54.31Q5.48 54.44 5.48 54.56Q5.5 57.35 6.02 59.79Q6.85 63.72 8.96 66.77Q12.36 71.68 19.1 74.3C28.18 77.75 38.04 79.48 48.68 79.48Q64.74 79.48 77.61 74.39Q83.62 71.99 86.84 67.55L86.84 67.55Q90.57 62.43 90.57 54.59Q90.57 48.08 87.39 44.11L87.39 44.11Q86.71 43.26 85.88 42.53Q85.45 42.14 84.99 41.78Q80.62 38.27 74.32 37.15Q70.74 36.47 66.52 36.14Q64.12 35.95 61.51 35.88Q59.93 35.83 58.26 35.83L48.03 35.93C43.21 35.93 38.88 35.46 35.07 34.52Q31.02 33.52 29.83 31.11Q29.34 30.11 29.34 28.86Q29.34 27.88 29.66 27.03L29.66 27.03Q30.69 24.35 34.97 22.92Q40.61 21.03 48.78 21.03ZM86.57 36.14Q87.07 36.47 87.56 36.83Q88.59 37.59 89.55 38.45Q90.28 39.1 90.93 39.81L90.93 36.14L86.57 36.14ZM90.93 13.72Q86.86 8.47 79.54 5.57Q65.51 0 48.68 0Q30.96 0 16.88 4.81Q9 7.46 4.8 12.94Q0 19.2 0 29.14Q0 37.36 3.89 42.78Q5.22 44.62 6.99 46.13Q7.73 46.77 8.51 47.35Q9.56 48.12 10.67 48.81L0 48.85L0 54.31Q0 63.6 4.33 69.89Q8.62 76.12 17.15 79.42Q31.71 84.97 48.68 84.97Q65.79 84.97 79.65 79.48Q86.89 76.59 90.93 71.4L90.93 82.8L125.1 82.8L125.1 60.27L149.77 60.27Q165.02 60.27 174.25 52.92Q177.74 50.1 179.98 46.51Q183.99 40.06 183.99 31.12L183.99 30.74Q183.99 30.06 183.96 29.39L200.86 50.05L200.86 82.8L236.72 82.8L236.72 49.96L268.72 11.04L276.09 2.07L238.01 2.07L218.38 24.93L199.75 2.07L161.62 2.07L163.4 4.25Q156.86 2.07 148.92 2.07L90.93 2.07L90.93 13.72ZM177.68 13.04L206.34 48.09L206.34 77.31L231.23 77.31L231.23 48L259.97 13.04L264.48 7.55L240.53 7.55L221.9 29.25L218.27 33.48L214.75 29.16L197.14 7.55L173.19 7.55L177.68 13.04ZM125.1 54.78L149.77 54.78C158.66 54.78 165.67 52.74 170.8 48.66C175.94 44.51 178.5 38.66 178.5 31.12L178.5 30.74C178.5 26.16 177.25 22.13 174.75 18.68C172.31 15.16 168.83 12.43 164.32 10.48Q157.65 7.55 148.92 7.55L96.42 7.55L96.42 77.31L119.62 77.31L119.62 54.78L125.1 54.78L125.1 54.78ZM34.92 54.23Q34.92 55.76 35.68 56.57Q36.14 57.05 36.87 57.27Q41.94 58.72 49.06 58.72Q55.39 58.72 59.65 56.97Q60.92 56.45 61.37 55.76Q59.03 54.89 56.35 54.69Q52.75 54.42 47.65 54.33L40.7 54.33Q37.7 54.33 34.92 54.23ZM152.02 38C150.45 38.19 148.04 38.29 144.79 38.29L119.62 38.29L119.62 23.77L135.11 23.77Q139.81 23.67 141.69 23.67L144.79 23.67C147.85 23.67 150.23 23.8 151.92 24.05C153.62 24.3 154.99 24.96 156.06 26.03Q157.65 27.63 157.65 31.22Q157.65 34.7 156.06 36.21C154.99 37.22 153.65 37.81 152.02 38ZM125.1 29.25L125.1 32.8L144.79 32.8Q149.34 32.8 151.36 32.56L151.39 32.55Q151.81 32.5 152.07 32.37Q152.17 31.95 152.17 31.22Q152.17 30.29 152.02 29.78Q151.7 29.56 151.12 29.48Q148.98 29.16 144.79 29.16L141.69 29.16L135.19 29.25L125.1 29.25Z" fill="#FFFFFF" fill-opacity="1.000000" fill-rule="evenodd"/>
</svg>
